<svg xmlns="http://www.w3.org/2000/svg" viewBox="0 0 49.95 24.01"><defs><style>.cls-1{fill:#fff;}</style></defs><title>menu__burger</title><g id="Слой_2" data-name="Слой 2"><g id="Layer_1" data-name="Layer 1"><g id="miu"><g id="editor_list_view_hambuger_menu_glyph" data-name="editor list view hambuger menu glyph"><path id="path-1" class="cls-1" d="M1.14,0A1.07,1.07,0,0,0,0,1V3A1.07,1.07,0,0,0,1.14,4H48.81A1.07,1.07,0,0,0,50,3V1a1.07,1.07,0,0,0-1.14-1Zm0,10A1.07,1.07,0,0,0,0,11v2a1.07,1.07,0,0,0,1.14,1H48.81A1.06,1.06,0,0,0,50,13V11a1.08,1.08,0,0,0-1.14-1Zm0,10A1.06,1.06,0,0,0,0,21v2a1.07,1.07,0,0,0,1.14,1H48.81A1.07,1.07,0,0,0,50,23V21a1.07,1.07,0,0,0-1.14-1Z"/><path id="path-1-2" data-name="path-1" class="cls-1" d="M1.14,0A1.07,1.07,0,0,0,0,1V3A1.07,1.07,0,0,0,1.14,4H48.81A1.07,1.07,0,0,0,50,3V1a1.07,1.07,0,0,0-1.14-1Zm0,10A1.07,1.07,0,0,0,0,11v2a1.07,1.07,0,0,0,1.14,1H48.81A1.06,1.06,0,0,0,50,13V11a1.08,1.08,0,0,0-1.14-1Zm0,10A1.06,1.06,0,0,0,0,21v2a1.07,1.07,0,0,0,1.14,1H48.81A1.07,1.07,0,0,0,50,23V21a1.07,1.07,0,0,0-1.14-1Z"/></g></g></g></g></svg>